<?xml version="1.0" standalone="no"?><!DOCTYPE svg PUBLIC "-//W3C//DTD SVG 1.1//EN" "http://www.w3.org/Graphics/SVG/1.1/DTD/svg11.dtd"><svg t="1585752827615" class="icon" viewBox="0 0 1024 1024" version="1.1" xmlns="http://www.w3.org/2000/svg" p-id="1752" xmlns:xlink="http://www.w3.org/1999/xlink" width="200" height="200"><defs><style type="text/css"></style></defs><path d="M569.997946 656.383345a307.685712 307.685712 0 0 1-66.509938 10.977989 524.647508 524.647508 0 0 1-174.665836-21.30898 723.851321 723.851321 0 0 1-120.749887-45.199957c2.259998 36.805965 4.196996 73.611931 6.456994 110.417896 21.954979 9.684991 44.231959 17.756983 66.831937 25.182977a950.176109 950.176109 0 0 0 197.267815 45.522957 718.039327 718.039327 0 0 0 134.309874 0 412.291613 412.291613 0 0 0 121.394887-27.765974 174.343837 174.343837 0 0 0 81.682923-64.57194 121.717886 121.717886 0 0 0 2.259998-121.394886 156.909853 156.909853 0 0 0-34.867967-41.003961 295.093723 295.093723 0 0 0-71.351934-42.293961 994.408068 994.408068 0 0 0-165.949844-50.689952 343.845678 343.845678 0 0 1-82.006923-26.796975 74.90393 74.90393 0 0 1-30.348972-25.505976 28.411973 28.411973 0 0 1-2.259998-25.504976 49.397954 49.397954 0 0 1 26.474976-22.599979 167.240843 167.240843 0 0 1 64.571939-9.685991 760.657287 760.657287 0 0 1 164.334846 22.922979 955.665104 955.665104 0 0 1 129.143879 41.002961l-5.810995-107.512899c-22.276979-8.070992-44.877958-14.850986-67.799936-20.98498a1424.456665 1424.456665 0 0 0-166.919844-33.254969 777.769271 777.769271 0 0 0-164.334845-6.779994 362.57166 362.57166 0 0 0-101.377905 21.95398 210.181803 210.181803 0 0 0-75.871929 49.397953 141.412867 141.412867 0 0 0-39.065964 77.485928 109.449897 109.449897 0 0 0 5.810995 59.406944 129.143879 129.143879 0 0 0 48.105955 53.916949A434.246593 434.246593 0 0 0 371.440132 534.020459c40.679962 11.622989 81.683923 20.016981 123.009884 28.733973a478.478551 478.478551 0 0 1 56.822947 16.465985 177.572834 177.572834 0 0 1 44.231959 23.891978 37.774965 37.774965 0 0 1 13.559987 19.693981 20.339981 20.339981 0 0 1-7.102993 18.402983 83.297922 83.297922 0 0 1-31.96297 15.173986z m37.774964 273.785743A438.120589 438.120589 0 0 1 204.198289 812.970198a407.449618 407.449618 0 0 1-53.27195-64.57194 435.214592 435.214592 0 0 1 0-487.195543 463.949565 463.949565 0 0 1 53.27195-64.571939 438.443589 438.443589 0 0 1 138.50687-93.306913 425.206601 425.206601 0 0 1 168.209842-34.222968 433.600593 433.600593 0 0 1 308.330711 129.143879 436.183591 436.183591 0 0 1 99.117907 463.949565 423.591603 423.591603 0 0 1-55.854948 102.023905 32.28597 32.28597 0 0 0 6.457994 45.845957 32.28597 32.28597 0 0 0 48.750955-5.165996A505.921526 505.921526 0 0 0 717.221808 43.272919a413.906612 413.906612 0 0 0-64.57194-23.567977A505.921526 505.921526 0 0 0 6.930474 503.994488a504.306527 504.306527 0 0 0 663.154378 479.76955 34.868967 34.868967 0 0 0 20.016981-49.074954 32.28597 32.28597 0 0 0-40.679962-16.465985c-13.882987 4.519996-28.411973 8.716992-41.649961 11.945989z m264.421752-64.571939a507.212524 507.212524 0 0 1-129.143879 93.951911 33.899968 33.899968 0 0 0-13.882987 46.169957 34.222968 34.222968 0 0 0 45.199958 14.849986A573.076463 573.076463 0 0 0 928.04961 904.340112a32.28597 32.28597 0 0 0-2.259998-48.428954l-27.442974-22.599979c-8.071992 10.65399-17.757983 20.98598-27.442974 30.993971z" fill="#E94924" p-id="1753"></path></svg>