<?xml version="1.0" standalone="no"?><!DOCTYPE svg PUBLIC "-//W3C//DTD SVG 1.1//EN" "http://www.w3.org/Graphics/SVG/1.1/DTD/svg11.dtd"><svg t="1585612526713" class="icon" viewBox="0 0 1024 1024" version="1.1" xmlns="http://www.w3.org/2000/svg" p-id="7339" xmlns:xlink="http://www.w3.org/1999/xlink" width="200" height="200"><defs><style type="text/css"></style></defs><path d="M345.705929 297.42283c15.350222 12.791852 35.817184 20.466963 53.725777 17.908592 20.466963 0 38.375555-10.233481 53.725777-23.025333 17.908592-15.350222 30.700444-35.817184 40.933925-58.842517 17.908592-43.492295 17.908592-97.218072 2.55837-143.268738-10.233481-30.700444-28.142073-58.842517-53.725777-76.75111-15.350222-10.233481-38.375555-15.350222-58.842517-12.791851-12.791852 2.55837-25.583703 7.675111-38.375555 15.350222-23.025333 15.350222-38.375555 40.933925-48.609036 66.517628-12.791852 46.050666-15.350222 92.101331-2.55837 138.151997 10.233481 28.142073 25.583703 56.284147 51.167406 76.75111zM601.542961 299.9812c17.908592 15.350222 40.933925 25.583703 63.959258 25.583703 20.466963 2.55837 38.375555-2.55837 56.284147-12.791851 17.908592-10.233481 33.258814-25.583703 43.492295-43.492296 12.791852-20.466963 23.025333-40.933925 30.700444-63.959258 5.116741-17.908592 7.675111-38.375555 5.116741-58.842517-2.55837-28.142073-15.350222-53.725777-33.258814-76.75111-12.791852-15.350222-28.142073-30.700444-46.050666-38.375554-12.791852-5.116741-28.142073-10.233481-40.933925-7.675111-17.908592 2.55837-33.258814 12.791852-46.050666 23.025332-17.908592 15.350222-33.258814 33.258814-43.492295 53.725777-10.233481 17.908592-20.466963 38.375555-23.025333 61.400888-2.55837 25.583703-2.55837 51.167406 2.55837 74.192739 5.116741 23.025333 12.791852 46.050666 30.700444 63.959258zM245.929487 509.767566c17.908592-15.350222 28.142073-35.817184 35.817184-56.284147 10.233481-33.258814 10.233481-66.517628 7.675111-99.776442 0-12.791852-5.116741-25.583703-10.233481-38.375555-12.791852-28.142073-35.817184-53.725777-63.959258-69.075999-23.025333-10.233481-46.050666-15.350222-66.517628-10.233481-25.583703 2.55837-46.050666 20.466963-61.400888 40.933925-20.466963 28.142073-30.700444 63.959258-35.817184 97.218072-2.55837 20.466963 0 40.933925 5.11674 61.400888 7.675111 30.700444 23.025333 58.842517 46.050666 79.30948 17.908592 15.350222 40.933925 23.025333 63.959258 23.025333 28.142073 0 56.284147-7.675111 79.30948-28.142074zM982.740139 433.016457c-2.55837-20.466963-7.675111-38.375555-17.908593-56.284147-10.233481-20.466963-28.142073-40.933925-48.609036-51.167407-23.025333-12.791852-51.167406-15.350222-76.751109-12.791851-12.791852 2.55837-28.142073 5.116741-40.933925 12.791851-17.908592 10.233481-30.700444 28.142073-40.933925 48.609036-10.233481 25.583703-15.350222 53.725777-15.350222 81.86785 0 25.583703 0 53.725777 7.675111 79.30948 5.116741 17.908592 15.350222 38.375555 33.258814 48.609036 17.908592 15.350222 40.933925 20.466963 63.959258 23.025333 17.908592 2.55837 38.375555 2.55837 56.284147-2.55837 17.908592-5.116741 35.817184-15.350222 46.050665-30.700444 12.791852-15.350222 20.466963-35.817184 23.025333-53.725777 12.791852-30.700444 10.233481-58.842517 10.233482-86.98459z" fill="#306CFF" p-id="7340"></path><path d="M911.10577 819.330375c-2.55837-35.817184-20.466963-71.634369-46.050666-99.776443-5.116741-5.116741-10.233481-10.233481-17.908592-15.350222-33.258814-28.142073-66.517628-58.842517-99.776443-89.542961-33.258814-33.258814-63.959258-69.075999-92.101331-107.451553-20.466963-33.258814-48.609036-63.959258-86.984591-81.86785-23.025333-10.233481-51.167406-15.350222-76.75111-12.791852-46.050666 5.116741-86.984591 30.700444-115.126664 66.517628-7.675111 7.675111-12.791852 17.908592-17.908592 28.142074-20.466963 30.700444-46.050666 61.400888-74.192739 86.984591-15.350222 15.350222-30.700444 28.142073-46.050666 40.933925-7.675111 7.675111-17.908592 15.350222-25.583703 23.025333-30.700444 23.025333-61.400888 53.725777-79.30948 86.98459-12.791852 23.025333-20.466963 48.609036-23.025333 76.75111 0 23.025333 2.55837 46.050666 10.233481 66.517628 7.675111 23.025333 17.908592 46.050666 33.258814 63.959258 25.583703 30.700444 63.959258 51.167406 102.334813 53.725777 48.609036 2.55837 97.218072 0 143.268738-7.675111 20.466963-2.55837 40.933925-10.233481 63.959258-12.791852 46.050666-5.116741 92.101331-2.55837 135.593627 10.233482 35.817184 12.791852 74.192739 17.908592 112.568294 20.466962 38.375555 2.55837 79.30948-2.55837 115.126664-23.025333 25.583703-12.791852 46.050666-35.817184 58.842517-61.400887 20.466963-33.258814 30.700444-71.634369 25.583704-112.568294z m-429.806214 104.893183h-117.685034c-12.791852 0-25.583703 0-38.375555-2.558371-25.583703-5.116741-48.609036-20.466963-63.959258-43.492295-12.791852-15.350222-20.466963-33.258814-23.025333-53.725777-2.55837-20.466963-2.55837-40.933925 0-61.400887 5.116741-23.025333 17.908592-43.492295 33.258814-58.842518 12.791852-12.791852 30.700444-23.025333 48.609036-30.700444 7.675111-2.55837 15.350222-5.116741 23.025333-5.11674h69.075999v-97.218072h66.517628c2.55837 120.243405 2.55837 237.92844 2.55837 353.055104z m263.512143 0h-161.17733c-17.908592-2.55837-33.258814-7.675111-46.050666-17.908593-15.350222-12.791852-23.025333-33.258814-23.025333-51.167406v-173.969182h66.517629v161.17733c0 7.675111 2.55837 12.791852 7.675111 17.908593 5.116741 5.116741 12.791852 7.675111 20.466962 7.675111h69.075999v-189.319404h66.517628v245.603551z" fill="#306CFF" p-id="7341"></path><path d="M340.589189 734.904154c-12.791852 5.116741-25.583703 15.350222-33.258814 30.700444-5.116741 12.791852-7.675111 25.583703-7.675111 38.375555 0 15.350222 5.116741 30.700444 12.791851 43.492295 10.233481 15.350222 28.142073 25.583703 46.050666 23.025333h53.725777v-138.151997h-58.842518c-2.55837-2.55837-7.675111 0-12.791851 2.55837z" fill="#306CFF" p-id="7342"></path></svg>