<?xml version="1.0" standalone="no"?><!DOCTYPE svg PUBLIC "-//W3C//DTD SVG 1.1//EN" "http://www.w3.org/Graphics/SVG/1.1/DTD/svg11.dtd"><svg t="1585753403221" class="icon" viewBox="0 0 1024 1024" version="1.1" xmlns="http://www.w3.org/2000/svg" p-id="7088" xmlns:xlink="http://www.w3.org/1999/xlink" width="200" height="200"><defs><style type="text/css"></style></defs><path d="M806.2 952H217.8C137.3 952 72 886.3 72 805.3V218.7C72 137.7 137.3 72 217.8 72h588.5C886.7 72 952 137.7 952 218.7v586.7c0 80.9-65.3 146.6-145.8 146.6z" fill="#FF5800" p-id="7089"></path><path d="M217.2 384l-41.4 63.9 76.7 47.7s51 26.2 26.8 75.1c-23 46.4-134.5 147.9-134.5 147.9L244.9 781c69-150 64.7-130 82.1-184 17.8-55.1 21.6-97.1-8.6-127.3-39.1-39.2-43.3-42.8-101.2-85.7z m0 0" fill="#FDFDFD" p-id="7090"></path><path d="M474.4 303.1c15.8-27.5 23.5-45.4 23.5-45.4l-92.3-25.9S368.4 353.3 302 410c0 0 64.2 37.1 63.5 36 18.5-18.4 34.9-37.1 49.4-55.3 14.7-6.4 28.9-12.5 42.8-18.1-17 30.7-44.7 76.8-72.3 105.8l38.9 34s26.5-25.4 55.5-56.2h33v56.7H383.9v45.3h128.8v108.7c-1.6-0.1-3.3-0.1-4.8-0.2-14.2-0.7-36.4-3.1-45-16.7-10.5-16.6-2.8-47.2-2.3-65.9h-88.7l-3.3 1.6s-32.4 145.8 94 142.5c118.3 3.2 186.1-32.9 218.7-57.9l12.9 48.2 73-30.3-49.3-121-59.3 18.4 11.1 41.5c-15.3 11.3-32.9 19.8-51.6 26.1v-95.1h125.6v-45.3H618v-56.7h126.1v-45.4H520c16.1-19.6 28.8-37.6 32.2-49.1l-39-10.6c167.5-60 260.9-49.7 260 48.6v259.2s10 89.1-92 82.6l-55.1-11.9-13 52.5s238.1 68 257.5-115.1c19.5-183-4.9-299.6-4.9-299.6s-21.4-169-391.3-64.2z m0 0" fill="#FDFDFD" p-id="7091"></path><path d="M271.9 360.1c36.4 0 65.9-29.3 65.9-65.4 0-36.1-29.5-65.4-65.9-65.4-36.4 0-65.9 29.3-65.9 65.4 0 36.2 29.5 65.4 65.9 65.4z m0 0" fill="#FFFFFF" p-id="7092"></path></svg>